<svg width="67" height="67" viewBox="0 0 67 67" fill="none" xmlns="http://www.w3.org/2000/svg">
<path d="M62.0928 9.35645H58.6563C58.1141 9.35645 57.6748 9.79574 57.6748 10.3379C57.6748 10.88 58.1141 11.3193 58.6563 11.3193H62.0928C63.7162 11.3193 65.0371 12.6402 65.0371 14.2637V18.7783H1.96289V14.2637C1.96289 12.6402 3.28365 11.3193 4.90723 11.3193H54.3471C54.8892 11.3193 55.3285 10.88 55.3285 10.3379C55.3285 9.79574 54.8892 9.35645 54.3471 9.35645H4.90723C2.20132 9.35645 0 11.5578 0 14.2637V25.0833C0 25.6254 0.439426 26.0647 0.981445 26.0647C1.52346 26.0647 1.96289 25.6254 1.96289 25.0833V20.7412H65.0371V46.045C65.0371 46.5871 65.4764 47.0264 66.0186 47.0264C66.5607 47.0264 67 46.5871 67 46.045V14.2637C67 11.5578 64.7987 9.35645 62.0928 9.35645Z" fill="#0A7F2E"/>
<path d="M66.0186 49.2024C65.4764 49.2024 65.0371 49.6417 65.0371 50.1839V52.7364C65.0371 54.3598 63.7162 55.6807 62.0928 55.6807H4.90723C3.28365 55.6807 1.96289 54.3598 1.96289 52.7364V29.2952C1.96289 28.753 1.52346 28.3137 0.981445 28.3137C0.439426 28.3137 0 28.753 0 29.2952V52.7364C0 55.4423 2.20132 57.6436 4.90723 57.6436H62.0928C64.7987 57.6436 67 55.4423 67 52.7364V50.1839C67 49.6418 66.5607 49.2024 66.0186 49.2024Z" fill="#0A7F2E"/>
<path d="M14.1953 30.6809C13.812 30.2978 13.1906 30.2978 12.8074 30.6809L6.90957 36.5788C6.72545 36.7629 6.62207 37.0124 6.62207 37.2728C6.62207 37.5332 6.72545 37.7827 6.90957 37.9669L12.7294 43.7867C12.921 43.9783 13.1722 44.0741 13.4234 44.0741C13.6745 44.0741 13.9257 43.9783 14.1173 43.7867C14.5006 43.4033 14.5006 42.782 14.1173 42.3987L8.99141 37.273L14.1953 32.0691C14.5787 31.6857 14.5787 31.0643 14.1953 30.6809Z" fill="#0A7F2E"/>
<path d="M27.3948 43.7865C27.5863 43.9781 27.8376 44.0739 28.0887 44.0739C28.3398 44.0739 28.5911 43.9781 28.7826 43.7865L34.6026 37.9667C34.7866 37.7825 34.89 37.533 34.89 37.2726C34.89 37.0122 34.7866 36.7628 34.6026 36.5785L28.7047 30.6807C28.3214 30.2975 27.6999 30.2975 27.3168 30.6807C26.9335 31.0641 26.9335 31.6854 27.3168 32.0687L32.5208 37.2726L27.3949 42.3983C27.0115 42.7819 27.0115 43.4032 27.3948 43.7865Z" fill="#0A7F2E"/>
<path d="M17.2725 47.4017C17.6683 47.4017 18.0414 47.1604 18.1902 46.7682L25.1642 28.3958C25.3566 27.889 25.1017 27.3222 24.595 27.1299C24.0883 26.9374 23.5214 27.1924 23.3292 27.6991L16.3552 46.0718C16.1628 46.5785 16.4177 47.1452 16.9244 47.3376C17.039 47.3811 17.1567 47.4017 17.2725 47.4017Z" fill="#0A7F2E"/>
<path d="M4.31934 15.0974C4.31934 16.7209 5.6401 18.0417 7.26367 18.0417C8.88724 18.0417 10.208 16.7209 10.208 15.0974C10.208 13.474 8.88724 12.1531 7.26367 12.1531C5.6401 12.1531 4.31934 13.474 4.31934 15.0974ZM8.24512 15.0974C8.24512 15.6386 7.80491 16.0789 7.26367 16.0789C6.72244 16.0789 6.28223 15.6386 6.28223 15.0974C6.28223 14.5562 6.72244 14.116 7.26367 14.116C7.80491 14.116 8.24512 14.5562 8.24512 15.0974Z" fill="#0A7F2E"/>
<path d="M11.9297 15.0974C11.9297 16.7209 13.2505 18.0417 14.874 18.0417C16.4976 18.0417 17.8184 16.7209 17.8184 15.0974C17.8184 13.474 16.4976 12.1531 14.874 12.1531C13.2505 12.1531 11.9297 13.474 11.9297 15.0974ZM15.8555 15.0974C15.8555 15.6386 15.4153 16.0789 14.874 16.0789C14.3328 16.0789 13.8926 15.6386 13.8926 15.0974C13.8926 14.5562 14.3328 14.116 14.874 14.116C15.4153 14.116 15.8555 14.5562 15.8555 15.0974Z" fill="#0A7F2E"/>
<path d="M19.541 15.0974C19.541 16.7209 20.8618 18.0417 22.4854 18.0417C24.1089 18.0417 25.4297 16.7209 25.4297 15.0974C25.4297 13.474 24.1089 12.1531 22.4854 12.1531C20.8618 12.1531 19.541 13.474 19.541 15.0974ZM23.4668 15.0974C23.4668 15.6386 23.0266 16.0789 22.4854 16.0789C21.9441 16.0789 21.5039 15.6386 21.5039 15.0974C21.5039 14.5562 21.9441 14.116 22.4854 14.116C23.0266 14.116 23.4668 14.5562 23.4668 15.0974Z" fill="#0A7F2E"/>
<path d="M43.9033 31.7161H50.0537C51.6772 31.7161 52.998 30.3952 52.998 28.7717C52.998 27.1483 51.6772 25.8274 50.0537 25.8274H43.9033C42.2799 25.8274 40.959 27.1483 40.959 28.7717C40.959 30.3952 42.2799 31.7161 43.9033 31.7161ZM43.9033 27.7903H50.0537C50.5949 27.7903 51.0352 28.2305 51.0352 28.7717C51.0352 29.313 50.5949 29.7532 50.0537 29.7532H43.9033C43.3621 29.7532 42.9219 29.313 42.9219 28.7717C42.9219 28.2305 43.3621 27.7903 43.9033 27.7903Z" fill="#0A7F2E"/>
<path d="M43.9033 39.5676H60.1299C61.7533 39.5676 63.0742 38.2467 63.0742 36.6233C63.0742 34.9998 61.7533 33.679 60.1299 33.679H43.9033C42.2799 33.679 40.959 34.9998 40.959 36.6233C40.959 38.2467 42.2799 39.5676 43.9033 39.5676ZM43.9033 35.6418H60.1299C60.6711 35.6418 61.1113 36.0821 61.1113 36.6233C61.1113 37.1645 60.6711 37.6047 60.1299 37.6047H43.9033C43.3621 37.6047 42.9219 37.1645 42.9219 36.6233C42.9219 36.0821 43.3621 35.6418 43.9033 35.6418Z" fill="#0A7F2E"/>
<path d="M43.9033 47.4192H55.3097C56.9331 47.4192 58.254 46.0983 58.254 44.4749C58.254 42.8514 56.9331 41.5305 55.3097 41.5305H43.9033C42.2799 41.5305 40.959 42.8514 40.959 44.4749C40.959 46.0983 42.2799 47.4192 43.9033 47.4192ZM43.9033 43.4934H55.3097C55.8509 43.4934 56.2911 43.9336 56.2911 44.4749C56.2911 45.0161 55.8509 45.4563 55.3097 45.4563H43.9033C43.3621 45.4563 42.9219 45.0161 42.9219 44.4749C42.9219 43.9336 43.3621 43.4934 43.9033 43.4934Z" fill="#0A7F2E"/>
</svg>
