<svg width="58" height="24" viewBox="0 0 58 24" fill="none" xmlns="http://www.w3.org/2000/svg">
<path d="M12.1046 2C11.8196 2 11.5728 2.10421 11.3646 2.31257L5.88774 7.78947H1.5787C1.29343 7.78947 1.0467 7.89368 0.838453 8.10193C0.630032 8.31052 0.525879 8.55708 0.525879 8.84217V15.1578C0.525879 15.4429 0.630089 15.6896 0.838453 15.8979C1.04693 16.1063 1.2936 16.2106 1.5787 16.2106H5.88774L11.3646 21.6877C11.5727 21.8956 11.8196 21.9999 12.1046 21.9999C12.3897 21.9999 12.6365 21.8956 12.8451 21.6877C13.0533 21.4793 13.1574 21.2325 13.1574 20.9476V3.05282C13.1574 2.76778 13.0533 2.52082 12.8451 2.31252C12.6363 2.10421 12.3897 2 12.1046 2Z" fill="#E0DDDD"/>
<path d="M18.7739 9.66372C18.3079 8.94007 17.6916 8.43013 16.9236 8.13421C16.8139 8.07948 16.6771 8.052 16.5127 8.052C16.2276 8.052 15.9808 8.15368 15.7726 8.35628C15.5645 8.55911 15.46 8.80867 15.46 9.10465C15.46 9.3349 15.5258 9.52956 15.6575 9.68855C15.7892 9.84766 15.9477 9.98476 16.1345 10.0998C16.3207 10.215 16.5072 10.3411 16.6937 10.4781C16.8801 10.6152 17.039 10.8098 17.1707 11.062C17.302 11.3141 17.3682 11.6266 17.3682 11.9994C17.3682 12.3726 17.302 12.6849 17.1707 12.9372C17.039 13.1896 16.8801 13.384 16.6937 13.5214C16.5072 13.6582 16.3207 13.7843 16.1345 13.8995C15.9477 14.0144 15.7892 14.1518 15.6575 14.3107C15.5258 14.4698 15.46 14.6644 15.46 14.8947C15.46 15.191 15.5644 15.4399 15.7726 15.643C15.9808 15.8457 16.2276 15.9472 16.5127 15.9472C16.6771 15.9472 16.8139 15.9197 16.9236 15.8651C17.6916 15.5582 18.3079 15.0455 18.7739 14.3277C19.2403 13.6091 19.4734 12.8338 19.4734 12.0002C19.4734 11.1665 19.2398 10.3881 18.7739 9.66372Z" fill="#E0DDDD"/>
<g clip-path="url(#clip0)">
<path d="M48.1046 2.21313C47.8196 2.21313 47.5728 2.31735 47.3646 2.52571L41.8877 8.0026H37.5787C37.2934 8.0026 37.0467 8.10682 36.8385 8.31506C36.63 8.52366 36.5259 8.77021 36.5259 9.05531V15.371C36.5259 15.656 36.6301 15.9028 36.8385 16.111C37.0469 16.3194 37.2936 16.4237 37.5787 16.4237H41.8877L47.3646 21.9008C47.5727 22.1087 47.8196 22.2131 48.1046 22.2131C48.3897 22.2131 48.6365 22.1087 48.8451 21.9008C49.0533 21.6924 49.1574 21.4456 49.1574 21.1607V3.26595C49.1574 2.98092 49.0533 2.73396 48.8451 2.52565C48.6363 2.31735 48.3897 2.21313 48.1046 2.21313Z" fill="#0A7F2E"/>
<path d="M54.7739 9.87686C54.3079 9.1532 53.6916 8.64327 52.9236 8.34734C52.8139 8.29262 52.6771 8.26514 52.5127 8.26514C52.2276 8.26514 51.9808 8.36681 51.7726 8.56942C51.5645 8.77225 51.46 9.0218 51.46 9.31778C51.46 9.54804 51.5258 9.74269 51.6575 9.90168C51.7892 10.0608 51.9477 10.1979 52.1345 10.3129C52.3207 10.4281 52.5072 10.5543 52.6937 10.6912C52.8801 10.8283 53.039 11.0229 53.1707 11.2751C53.302 11.5272 53.3682 11.8397 53.3682 12.2126C53.3682 12.5858 53.302 12.898 53.1707 13.1504C53.039 13.4027 52.8801 13.5971 52.6937 13.7345C52.5072 13.8713 52.3207 13.9975 52.1345 14.1126C51.9477 14.2275 51.7892 14.3649 51.6575 14.5239C51.5258 14.683 51.46 14.8775 51.46 15.1078C51.46 15.4041 51.5644 15.6531 51.7726 15.8561C51.9808 16.0588 52.2276 16.1603 52.5127 16.1603C52.6771 16.1603 52.8139 16.1329 52.9236 16.0783C53.6916 15.7713 54.3079 15.2586 54.7739 14.5408C55.2403 13.8222 55.4734 13.0469 55.4734 12.2134C55.4734 11.3796 55.2398 10.6012 54.7739 9.87686Z" fill="#0A7F2E"/>
</g>
<g filter="url(#filter0_d)">
<rect x="35" y="22.2131" width="30" height="1" transform="rotate(-45 35 22.2131)" fill="#0A7F2E"/>
</g>
<defs>
<filter id="filter0_d" x="34" y="0" width="23.9203" height="23.9203" filterUnits="userSpaceOnUse" color-interpolation-filters="sRGB">
<feFlood flood-opacity="0" result="BackgroundImageFix"/>
<feColorMatrix in="SourceAlpha" type="matrix" values="0 0 0 0 0 0 0 0 0 0 0 0 0 0 0 0 0 0 127 0"/>
<feOffset/>
<feGaussianBlur stdDeviation="0.5"/>
<feColorMatrix type="matrix" values="0 0 0 0 0 0 0 0 0 0 0 0 0 0 0 0 0 0 0.29 0"/>
<feBlend mode="normal" in2="BackgroundImageFix" result="effect1_dropShadow"/>
<feBlend mode="normal" in="SourceGraphic" in2="effect1_dropShadow" result="shape"/>
</filter>
<clipPath id="clip0">
<rect width="20" height="20" fill="white" transform="translate(36 2.21313)"/>
</clipPath>
</defs>
</svg>
