<svg width="20" height="20" viewBox="0 0 20 20" fill="none" xmlns="http://www.w3.org/2000/svg">
<g clip-path="url(#clip0)">
<path d="M18.3529 2.58838H1.64707C0.738828 2.58838 0 3.32721 0 4.23545V15.7649C0 16.6729 0.738828 17.4119 1.64707 17.4119H18.353C19.261 17.4119 20 16.6729 20 15.7649V4.23545C20 3.32721 19.2609 2.58838 18.3529 2.58838ZM18.5882 15.7648C18.5882 15.8924 18.4805 16.0001 18.353 16.0001H1.64707C1.51953 16.0001 1.41176 15.8924 1.41176 15.7648V6.70955L9.52445 11.4792C9.74281 11.6077 10.0134 11.6093 10.2332 11.4834L18.5882 6.69658V15.7648ZM18.5882 5.06955L9.88707 10.0545L1.41176 5.07166V4.23541C1.41176 4.10787 1.51953 4.00014 1.64707 4.00014H18.353C18.4805 4.00014 18.5882 4.10791 18.5882 4.23541V5.06955Z" fill="black"/>
</g>
<defs>
<clipPath id="clip0">
<rect width="20" height="20" fill="white"/>
</clipPath>
</defs>
</svg>
